<?xml version="1.0" encoding="UTF-8" standalone="no"?>
<!-- Created with Inkscape (http://www.inkscape.org/) -->

<svg
   xmlns:dc="http://purl.org/dc/elements/1.1/"
   xmlns:cc="http://creativecommons.org/ns#"
   xmlns:rdf="http://www.w3.org/1999/02/22-rdf-syntax-ns#"
   xmlns:svg="http://www.w3.org/2000/svg"
   xmlns="http://www.w3.org/2000/svg"
   xmlns:sodipodi="http://sodipodi.sourceforge.net/DTD/sodipodi-0.dtd"
   xmlns:inkscape="http://www.inkscape.org/namespaces/inkscape"
   width="1523.6221"
   height="637.79529"
   id="svg4016"
   version="1.1"
   inkscape:version="0.48.5 r10040"
   sodipodi:docname="case.svg">
  <defs
     id="defs4018" />
  <sodipodi:namedview
     id="base"
     pagecolor="#000000"
     bordercolor="#666666"
     borderopacity="1.0"
     inkscape:pageopacity="0.01960784"
     inkscape:pageshadow="2"
     inkscape:zoom="0.70710678"
     inkscape:cx="940.0303"
     inkscape:cy="215.49137"
     inkscape:document-units="mm"
     inkscape:current-layer="layer1"
     showgrid="true"
     units="mm"
     inkscape:snap-bbox="true"
     showguides="true"
     inkscape:guide-bbox="true"
     guidecolor="#009e00"
     guideopacity="0.49803922"
     guidehicolor="#ff6d00"
     guidehiopacity="0.49803922"
     inkscape:snap-grids="false"
     inkscape:snap-bbox-midpoints="true"
     inkscape:window-width="1366"
     inkscape:window-height="750"
     inkscape:window-x="0"
     inkscape:window-y="18"
     inkscape:window-maximized="0">
    <inkscape:grid
       type="xygrid"
       id="grid4371"
       empspacing="10"
       visible="true"
       enabled="true"
       snapvisiblegridlinesonly="true"
       units="mm"
       spacingx="0.5mm"
       spacingy="0.5mm"
       color="#1e1e1e"
       opacity="0.05882353"
       empcolor="#1e1e1e"
       empopacity="0.11764706"
       dotted="false" />
    <sodipodi:guide
       orientation="1,0"
       position="124.01575,-17.716535"
       id="guide4881" />
    <sodipodi:guide
       orientation="1,0"
       position="96.375,412.8125"
       id="guide4883" />
    <sodipodi:guide
       orientation="0,1"
       position="164.76378,95.669291"
       id="guide4885" />
    <sodipodi:guide
       orientation="0,1"
       position="168.30709,187.79528"
       id="guide4887" />
    <sodipodi:guide
       orientation="0,1"
       position="168.30709,272.83465"
       id="guide4889" />
    <sodipodi:guide
       orientation="0,1"
       position="168.30709,364.96063"
       id="guide4891" />
    <sodipodi:guide
       orientation="1,0"
       position="184.25197,95.669291"
       id="guide4893" />
    <sodipodi:guide
       orientation="1,0"
       position="435.82677,95.669291"
       id="guide4895" />
    <sodipodi:guide
       orientation="1,0"
       position="481.88976,364.96063"
       id="guide4897" />
  </sodipodi:namedview>
  <metadata
     id="metadata4021">
    <rdf:RDF>
      <cc:Work
         rdf:about="">
        <dc:format>image/svg+xml</dc:format>
        <dc:type
           rdf:resource="http://purl.org/dc/dcmitype/StillImage" />
        <dc:title></dc:title>
      </cc:Work>
    </rdf:RDF>
  </metadata>
  <g
     inkscape:label="Layer 1"
     inkscape:groupmode="layer"
     id="layer1"
     transform="translate(0,-414.56695)">
    <polygon
       id="polygon4432"
       points="340.15776,177.1655 318.8979,177.1655 318.8979,166.53557 297.63804,166.53557 297.63804,177.1655 276.37818,177.1655 276.37818,166.53557 255.11832,166.53557 255.11832,177.1655 233.85846,177.1655 233.85846,166.53557 212.5986,166.53557 212.5986,177.1655 191.33874,177.1655 191.33874,166.53557 170.07888,166.53557 170.07888,177.1655 148.81902,177.1655 148.81902,166.53557 127.55916,166.53557 127.55916,177.1655 106.2993,177.1655 106.2993,166.53557 85.03944,166.53557 85.03944,177.1655 63.77958,177.1655 63.77958,166.53557 31.88979,166.53557 31.88979,177.1655 0,177.1655 0,148.81902 10.62993,148.81902 10.62993,120.47254 0,120.47254 0,99.21268 10.62993,99.21268 10.62993,77.95282 0,77.95282 0,56.69296 10.62993,56.69296 10.62993,28.34648 0,28.34648 0,0 31.88979,0 31.88979,10.62993 63.77958,10.62993 63.77958,0 85.03944,0 85.03944,10.62993 106.2993,10.62993 106.2993,0 127.55916,0 127.55916,10.62993 148.81902,10.62993 148.81902,0 170.07888,0 170.07888,10.62993 191.33874,10.62993 191.33874,0 212.5986,0 212.5986,10.62993 233.85846,10.62993 233.85846,0 255.11832,0 255.11832,10.62993 276.37818,10.62993 276.37818,0 297.63804,0 297.63804,10.62993 318.8979,10.62993 318.8979,0 340.15776,0 340.15776,10.62993 361.41762,10.62993 361.41762,0 382.67748,0 382.67748,10.62993 403.93734,10.62993 403.93734,0 425.1972,0 425.1972,10.62993 446.45706,10.62993 446.45706,0 467.71692,0 467.71692,10.62993 499.60671,10.62993 499.60671,0 531.4965,0 531.4965,28.34648 520.86657,28.34648 520.86657,56.69296 531.4965,56.69296 531.4965,77.95282 520.86657,77.95282 520.86657,99.21268 531.4965,99.21268 531.4965,120.47254 520.86657,120.47254 520.86657,148.81902 531.4965,148.81902 531.4965,177.1655 499.60671,177.1655 499.60671,166.53557 467.71692,166.53557 467.71692,177.1655 446.45706,177.1655 446.45706,166.53557 425.1972,166.53557 425.1972,177.1655 403.93734,177.1655 403.93734,166.53557 382.67748,166.53557 382.67748,177.1655 361.41762,177.1655 361.41762,166.53557 340.15776,166.53557 "
       style="fill:none;stroke:#0000ff;stroke-width:1.25;stroke-miterlimit:4;stroke-opacity:1;stroke-dasharray:none"
       transform="translate(17.716535,432.28314)" />
    <polygon
       id="polygon4436"
       points="212.5986,177.1655 191.33874,177.1655 191.33874,166.53557 170.07888,166.53557 170.07888,177.1655 148.81902,177.1655 148.81902,166.53557 127.55916,166.53557 127.55916,177.1655 106.2993,177.1655 106.2993,166.53557 85.03944,166.53557 85.03944,177.1655 63.77958,177.1655 63.77958,166.53557 31.88979,166.53557 31.88979,177.1655 0,177.1655 0,148.81902 10.62993,148.81902 10.62993,120.47254 0,120.47254 0,99.21268 10.62993,99.21268 10.62993,77.95282 0,77.95282 0,56.69296 10.62993,56.69296 10.62993,28.34648 0,28.34648 0,0 31.88979,0 31.88979,10.62993 63.77958,10.62993 63.77958,0 85.03944,0 85.03944,10.62993 106.2993,10.62993 106.2993,0 127.55916,0 127.55916,10.62993 148.81902,10.62993 148.81902,0 170.07888,0 170.07888,10.62993 191.33874,10.62993 191.33874,0 212.5986,0 212.5986,10.62993 233.85846,10.62993 233.85846,0 255.11832,0 255.11832,10.62993 276.37818,10.62993 276.37818,0 297.63804,0 297.63804,10.62993 318.8979,10.62993 318.8979,0 340.15776,0 340.15776,10.62993 361.41762,10.62993 361.41762,0 382.67748,0 382.67748,10.62993 403.93734,10.62993 403.93734,0 425.1972,0 425.1972,10.62993 446.45706,10.62993 446.45706,0 467.71692,0 467.71692,10.62993 499.60671,10.62993 499.60671,0 531.4965,0 531.4965,28.34648 520.86657,28.34648 520.86657,56.69296 531.4965,56.69296 531.4965,77.95282 520.86657,77.95282 520.86657,99.21268 531.4965,99.21268 531.4965,120.47254 520.86657,120.47254 520.86657,148.81902 531.4965,148.81902 531.4965,177.1655 499.60671,177.1655 499.60671,166.53557 467.71692,166.53557 467.71692,177.1655 446.45706,177.1655 446.45706,166.53557 425.1972,166.53557 425.1972,177.1655 403.93734,177.1655 403.93734,166.53557 382.67748,166.53557 382.67748,177.1655 361.41762,177.1655 361.41762,166.53557 340.15776,166.53557 340.15776,177.1655 318.8979,177.1655 318.8979,166.53557 297.63804,166.53557 297.63804,177.1655 276.37818,177.1655 276.37818,166.53557 255.11832,166.53557 255.11832,177.1655 233.85846,177.1655 233.85846,166.53557 212.5986,166.53557 "
       style="fill:none;stroke:#0000ff;stroke-width:1.25;stroke-miterlimit:4;stroke-opacity:1;stroke-dasharray:none"
       transform="translate(549.21258,432.28314)" />
    <polygon
       id="polygon4440"
       points="0,120.47254 10.62993,120.47254 10.62993,99.21268 0,99.21268 0,77.95282 10.62993,77.95282 10.62993,56.69296 0,56.69296 0,28.34648 10.62993,28.34648 10.62993,0 26.574825,0 26.574825,10.62993 53.14965,10.62993 53.14965,0 74.40951,0 74.40951,10.62993 95.66937,10.62993 95.66937,0 116.92923,0 116.92923,10.62993 138.18909,10.62993 138.18909,0 159.44895,0 159.44895,10.62993 180.70881,10.62993 180.70881,0 201.96867,0 201.96867,10.62993 223.22853,10.62993 223.22853,0 244.48839,0 244.48839,10.62993 265.74825,10.62993 265.74825,0 287.00811,0 287.00811,10.62993 308.26797,10.62993 308.26797,0 329.52783,0 329.52783,10.62993 350.78769,10.62993 350.78769,0 372.04755,0 372.04755,10.62993 398.62237,10.62993 398.62237,0 414.56727,0 414.56727,28.34648 425.1972,28.34648 425.1972,56.69296 414.56727,56.69296 414.56727,77.95282 425.1972,77.95282 425.1972,99.21268 414.56727,99.21268 414.56727,120.47254 425.1972,120.47254 425.1972,148.81902 414.56727,148.81902 414.56727,177.1655 398.62237,177.1655 398.62237,166.53557 372.04755,166.53557 372.04755,177.1655 350.78769,177.1655 350.78769,166.53557 329.52783,166.53557 329.52783,177.1655 308.26797,177.1655 308.26797,166.53557 287.00811,166.53557 287.00811,177.1655 265.74825,177.1655 265.74825,166.53557 244.48839,166.53557 244.48839,177.1655 223.22853,177.1655 223.22853,166.53557 201.96867,166.53557 201.96867,177.1655 180.70881,177.1655 180.70881,166.53557 159.44895,166.53557 159.44895,177.1655 138.18909,177.1655 138.18909,166.53557 116.92923,166.53557 116.92923,177.1655 95.66937,177.1655 95.66937,166.53557 74.40951,166.53557 74.40951,177.1655 53.14965,177.1655 53.14965,166.53557 26.574825,166.53557 26.574825,177.1655 10.62993,177.1655 10.62993,148.81902 0,148.81902 "
       style="fill:none;stroke:#0000ff;stroke-width:1.25;stroke-miterlimit:4;stroke-opacity:1;stroke-dasharray:none"
       transform="translate(1080.7085,432.28314)" />
    <polygon
       id="polygon4444"
       points="0,120.47254 10.62993,120.47254 10.62993,99.21268 0,99.21268 0,77.95282 10.62993,77.95282 10.62993,56.69296 0,56.69296 0,28.34648 10.62993,28.34648 10.62993,0 26.574825,0 26.574825,10.62993 53.14965,10.62993 53.14965,0 74.40951,0 74.40951,10.62993 95.66937,10.62993 95.66937,0 116.92923,0 116.92923,10.62993 138.18909,10.62993 138.18909,0 159.44895,0 159.44895,10.62993 180.70881,10.62993 180.70881,0 201.96867,0 201.96867,10.62993 223.22853,10.62993 223.22853,0 244.48839,0 244.48839,10.62993 265.74825,10.62993 265.74825,0 287.00811,0 287.00811,10.62993 308.26797,10.62993 308.26797,0 329.52783,0 329.52783,10.62993 350.78769,10.62993 350.78769,0 372.04755,0 372.04755,10.62993 398.62237,10.62993 398.62237,0 414.56727,0 414.56727,28.34648 425.1972,28.34648 425.1972,56.69296 414.56727,56.69296 414.56727,77.95282 425.1972,77.95282 425.1972,99.21268 414.56727,99.21268 414.56727,120.47254 425.1972,120.47254 425.1972,148.81902 414.56727,148.81902 414.56727,177.1655 398.62237,177.1655 398.62237,166.53557 372.04755,166.53557 372.04755,177.1655 350.78769,177.1655 350.78769,166.53557 329.52783,166.53557 329.52783,177.1655 308.26797,177.1655 308.26797,166.53557 287.00811,166.53557 287.00811,177.1655 265.74825,177.1655 265.74825,166.53557 244.48839,166.53557 244.48839,177.1655 223.22853,177.1655 223.22853,166.53557 201.96867,166.53557 201.96867,177.1655 180.70881,177.1655 180.70881,166.53557 159.44895,166.53557 159.44895,177.1655 138.18909,177.1655 138.18909,166.53557 116.92923,166.53557 116.92923,177.1655 95.66937,177.1655 95.66937,166.53557 74.40951,166.53557 74.40951,177.1655 53.14965,177.1655 53.14965,166.53557 26.574825,166.53557 26.574825,177.1655 10.62993,177.1655 10.62993,148.81902 0,148.81902 "
       style="fill:none;stroke:#0000ff;stroke-width:1.25;stroke-miterlimit:4;stroke-opacity:1;stroke-dasharray:none"
       transform="translate(1080.7085,609.44849)" />
    <polygon
       id="polygon4448"
       points="531.4965,350.78769 520.86657,350.78769 520.86657,372.04755 531.4965,372.04755 531.4965,398.62237 520.86657,398.62237 520.86657,414.56727 499.60671,414.56727 499.60671,425.1972 467.71692,425.1972 467.71692,414.56727 446.45706,414.56727 446.45706,425.1972 425.1972,425.1972 425.1972,414.56727 403.93734,414.56727 403.93734,425.1972 382.67748,425.1972 382.67748,414.56727 361.41762,414.56727 361.41762,425.1972 340.15776,425.1972 340.15776,414.56727 318.8979,414.56727 318.8979,425.1972 297.63804,425.1972 297.63804,414.56727 276.37818,414.56727 276.37818,425.1972 255.11832,425.1972 255.11832,414.56727 233.85846,414.56727 233.85846,425.1972 212.5986,425.1972 212.5986,414.56727 191.33874,414.56727 191.33874,425.1972 170.07888,425.1972 170.07888,414.56727 148.81902,414.56727 148.81902,425.1972 127.55916,425.1972 127.55916,414.56727 106.2993,414.56727 106.2993,425.1972 85.03944,425.1972 85.03944,414.56727 63.77958,414.56727 63.77958,425.1972 31.88979,425.1972 31.88979,414.56727 10.62993,414.56727 10.62993,398.62237 0,398.62237 0,372.04755 10.62993,372.04755 10.62993,350.78769 0,350.78769 0,329.52783 10.62993,329.52783 10.62993,308.26797 0,308.26797 0,287.00811 10.62993,287.00811 10.62993,265.74825 0,265.74825 0,244.48839 10.62993,244.48839 10.62993,223.22853 0,223.22853 0,201.96867 10.62993,201.96867 10.62993,180.70881 0,180.70881 0,159.44895 10.62993,159.44895 10.62993,138.18909 0,138.18909 0,116.92923 10.62993,116.92923 10.62993,95.66937 0,95.66937 0,74.40951 10.62993,74.40951 10.62993,53.14965 0,53.14965 0,26.574825 10.62993,26.574825 10.62993,10.62993 31.88979,10.62993 31.88979,0 63.77958,0 63.77958,10.62993 85.03944,10.62993 85.03944,0 106.2993,0 106.2993,10.62993 127.55916,10.62993 127.55916,0 148.81902,0 148.81902,10.62993 170.07888,10.62993 170.07888,0 191.33874,0 191.33874,10.62993 212.5986,10.62993 212.5986,0 233.85846,0 233.85846,10.62993 255.11832,10.62993 255.11832,0 276.37818,0 276.37818,10.62993 297.63804,10.62993 297.63804,0 318.8979,0 318.8979,10.62993 340.15776,10.62993 340.15776,0 361.41762,0 361.41762,10.62993 382.67748,10.62993 382.67748,0 403.93734,0 403.93734,10.62993 425.1972,10.62993 425.1972,0 446.45706,0 446.45706,10.62993 467.71692,10.62993 467.71692,0 499.60671,0 499.60671,10.62993 520.86657,10.62993 520.86657,26.574825 531.4965,26.574825 531.4965,53.14965 520.86657,53.14965 520.86657,74.40951 531.4965,74.40951 531.4965,95.66937 520.86657,95.66937 520.86657,116.92923 531.4965,116.92923 531.4965,138.18909 520.86657,138.18909 520.86657,159.44895 531.4965,159.44895 531.4965,180.70881 520.86657,180.70881 520.86657,201.96867 531.4965,201.96867 531.4965,223.22853 520.86657,223.22853 520.86657,244.48839 531.4965,244.48839 531.4965,265.74825 520.86657,265.74825 520.86657,287.00811 531.4965,287.00811 531.4965,308.26797 520.86657,308.26797 520.86657,329.52783 531.4965,329.52783 "
       style="fill:none;stroke:#0000ff;stroke-width:1.25;stroke-miterlimit:4;stroke-opacity:1;stroke-dasharray:none"
       transform="translate(17.716535,609.4485)" />
    <polygon
       id="polygon4452"
       points="425.1972,414.56727 403.93734,414.56727 403.93734,425.1972 382.67748,425.1972 382.67748,414.56727 361.41762,414.56727 361.41762,425.1972 340.15776,425.1972 340.15776,414.56727 318.8979,414.56727 318.8979,425.1972 297.63804,425.1972 297.63804,414.56727 276.37818,414.56727 276.37818,425.1972 255.11832,425.1972 255.11832,414.56727 233.85846,414.56727 233.85846,425.1972 212.5986,425.1972 212.5986,414.56727 191.33874,414.56727 191.33874,425.1972 170.07888,425.1972 170.07888,414.56727 148.81902,414.56727 148.81902,425.1972 127.55916,425.1972 127.55916,414.56727 106.2993,414.56727 106.2993,425.1972 85.03944,425.1972 85.03944,414.56727 63.77958,414.56727 63.77958,425.1972 31.88979,425.1972 31.88979,414.56727 10.62993,414.56727 10.62993,398.62237 0,398.62237 0,372.04755 10.62993,372.04755 10.62993,350.78769 0,350.78769 0,329.52783 10.62993,329.52783 10.62993,308.26797 0,308.26797 0,287.00811 10.62993,287.00811 10.62993,265.74825 0,265.74825 0,244.48839 10.62993,244.48839 10.62993,223.22853 0,223.22853 0,201.96867 10.62993,201.96867 10.62993,180.70881 0,180.70881 0,159.44895 10.62993,159.44895 10.62993,138.18909 0,138.18909 0,116.92923 10.62993,116.92923 10.62993,95.66937 0,95.66937 0,74.40951 10.62993,74.40951 10.62993,53.14965 0,53.14965 0,26.574825 10.62993,26.574825 10.62993,10.62993 31.88979,10.62993 31.88979,0 63.77958,0 63.77958,10.62993 85.03944,10.62993 85.03944,0 106.2993,0 106.2993,10.62993 127.55916,10.62993 127.55916,0 148.81902,0 148.81902,10.62993 170.07888,10.62993 170.07888,0 191.33874,0 191.33874,10.62993 212.5986,10.62993 212.5986,0 233.85846,0 233.85846,10.62993 255.11832,10.62993 255.11832,0 276.37818,0 276.37818,10.62993 297.63804,10.62993 297.63804,0 318.8979,0 318.8979,10.62993 340.15776,10.62993 340.15776,0 361.41762,0 361.41762,10.62993 382.67748,10.62993 382.67748,0 403.93734,0 403.93734,10.62993 425.1972,10.62993 425.1972,0 446.45706,0 446.45706,10.62993 467.71692,10.62993 467.71692,0 499.60671,0 499.60671,10.62993 520.86657,10.62993 520.86657,26.574825 531.4965,26.574825 531.4965,53.14965 520.86657,53.14965 520.86657,74.40951 531.4965,74.40951 531.4965,95.66937 520.86657,95.66937 520.86657,116.92923 531.4965,116.92923 531.4965,138.18909 520.86657,138.18909 520.86657,159.44895 531.4965,159.44895 531.4965,180.70881 520.86657,180.70881 520.86657,201.96867 531.4965,201.96867 531.4965,223.22853 520.86657,223.22853 520.86657,244.48839 531.4965,244.48839 531.4965,265.74825 520.86657,265.74825 520.86657,287.00811 531.4965,287.00811 531.4965,308.26797 520.86657,308.26797 520.86657,329.52783 531.4965,329.52783 531.4965,350.78769 520.86657,350.78769 520.86657,372.04755 531.4965,372.04755 531.4965,398.62237 520.86657,398.62237 520.86657,414.56727 499.60671,414.56727 499.60671,425.1972 467.71692,425.1972 467.71692,414.56727 446.45706,414.56727 446.45706,425.1972 425.1972,425.1972 "
       style="fill:none;stroke:#0000ff;stroke-width:1.25;stroke-miterlimit:4;stroke-opacity:1;stroke-dasharray:none"
       transform="translate(549.21258,609.4485)" />
    <g
       id="g4994">
      <rect
         transform="matrix(0,-1,1,0,0,0)"
         y="194.88184"
         x="-960.23584"
         height="230.31497"
         width="7.0866137"
         id="rect2944"
         style="fill:none;stroke:#ff0000;stroke-width:1.25;stroke-miterlimit:4;stroke-opacity:1;stroke-dasharray:none" />
      <path
         transform="matrix(0,-0.47399603,0.66666666,0,115.27556,1010.6212)"
         d="m 121.24999,103.46461 a 7.4753938,5.3149605 0 1 1 -14.95079,0 7.4753938,5.3149605 0 1 1 14.95079,0 z"
         sodipodi:ry="5.3149605"
         sodipodi:rx="7.4753938"
         sodipodi:cy="103.46461"
         sodipodi:cx="113.7746"
         id="path4028"
         style="fill:none;stroke:#ff0000;stroke-width:2.22365953;stroke-linejoin:bevel;stroke-miterlimit:4;stroke-opacity:1;stroke-dasharray:none"
         sodipodi:type="arc" />
      <path
         transform="matrix(0,-0.47399603,0.66666666,0,366.85036,1010.6212)"
         d="m 121.24999,103.46461 a 7.4753938,5.3149605 0 1 1 -14.95079,0 7.4753938,5.3149605 0 1 1 14.95079,0 z"
         sodipodi:ry="5.3149605"
         sodipodi:rx="7.4753938"
         sodipodi:cy="103.46461"
         sodipodi:cx="113.7746"
         id="path4028-2"
         style="fill:none;stroke:#ff0000;stroke-width:2.22365953;stroke-linejoin:bevel;stroke-miterlimit:4;stroke-opacity:1;stroke-dasharray:none"
         sodipodi:type="arc" />
      <rect
         transform="matrix(0,-1,1,0,0,0)"
         y="177.16531"
         x="-972.63745"
         height="265.74805"
         width="31.889763"
         id="rect4071"
         style="fill:none;stroke:#000000;stroke-width:1.25;stroke-linejoin:bevel;stroke-miterlimit:4;stroke-opacity:1;stroke-dasharray:none" />
      <path
         transform="matrix(0,-1.7774852,2.5000001,0,-134.64579,1158.9252)"
         d="m 121.24999,103.46461 a 7.4753938,5.3149605 0 1 1 -14.95079,0 7.4753938,5.3149605 0 1 1 14.95079,0 z"
         sodipodi:ry="5.3149605"
         sodipodi:rx="7.4753938"
         sodipodi:cy="103.46461"
         sodipodi:cx="113.7746"
         id="path4028-1-0"
         style="fill:none;stroke:#ff0000;stroke-width:0.59297585;stroke-linejoin:bevel;stroke-miterlimit:4;stroke-opacity:1;stroke-dasharray:none"
         sodipodi:type="arc" />
      <path
         transform="matrix(0,-0.64018198,0.90040413,0,3.2150403,1029.5294)"
         d="m 121.24999,103.46461 a 7.4753938,5.3149605 0 1 1 -14.95079,0 7.4753938,5.3149605 0 1 1 14.95079,0 z"
         sodipodi:ry="5.3149605"
         sodipodi:rx="7.4753938"
         sodipodi:cy="103.46461"
         sodipodi:cx="113.7746"
         id="path4028-1-3-6"
         style="fill:none;stroke:#ff0000;stroke-width:1.64641595;stroke-linejoin:bevel;stroke-miterlimit:4;stroke-opacity:1;stroke-dasharray:none"
         sodipodi:type="arc" />
      <path
         transform="matrix(0,-4.7399604,6.6666667,0,-565.74832,1495.9796)"
         d="m 121.24999,103.46461 a 7.4753938,5.3149605 0 1 1 -14.95079,0 7.4753938,5.3149605 0 1 1 14.95079,0 z"
         sodipodi:ry="5.3149605"
         sodipodi:rx="7.4753938"
         sodipodi:cy="103.46461"
         sodipodi:cx="113.7746"
         id="path4028-1-1-8"
         style="fill:none;stroke:#000000;stroke-width:0.22236595;stroke-linejoin:bevel;stroke-miterlimit:4;stroke-opacity:1;stroke-dasharray:none"
         sodipodi:type="arc" />
      <rect
         transform="matrix(0,-1,1,0,0,0)"
         y="467.71649"
         x="-970.86584"
         height="28.346455"
         width="28.346479"
         id="rect4337"
         style="fill:none;stroke:#ff0000;stroke-width:1.25;stroke-linejoin:bevel;stroke-miterlimit:4;stroke-opacity:1;stroke-dasharray:none" />
    </g>
    <g
       id="g5004">
      <rect
         transform="matrix(0,-1,1,0,0,0)"
         y="194.88184"
         x="-868.10992"
         height="230.31497"
         width="7.0866137"
         id="rect2944-6"
         style="fill:none;stroke:#ff0000;stroke-width:1.25;stroke-miterlimit:4;stroke-opacity:1;stroke-dasharray:none" />
      <path
         transform="matrix(0,-0.47399603,0.66666666,0,115.27554,918.49536)"
         d="m 121.24999,103.46461 a 7.4753938,5.3149605 0 1 1 -14.95079,0 7.4753938,5.3149605 0 1 1 14.95079,0 z"
         sodipodi:ry="5.3149605"
         sodipodi:rx="7.4753938"
         sodipodi:cy="103.46461"
         sodipodi:cx="113.7746"
         id="path4028-7"
         style="fill:none;stroke:#ff0000;stroke-width:2.22365953;stroke-linejoin:bevel;stroke-miterlimit:4;stroke-opacity:1;stroke-dasharray:none"
         sodipodi:type="arc" />
      <path
         transform="matrix(0,-0.47399603,0.66666666,0,366.85034,918.49536)"
         d="m 121.24999,103.46461 a 7.4753938,5.3149605 0 1 1 -14.95079,0 7.4753938,5.3149605 0 1 1 14.95079,0 z"
         sodipodi:ry="5.3149605"
         sodipodi:rx="7.4753938"
         sodipodi:cy="103.46461"
         sodipodi:cx="113.7746"
         id="path4028-2-5"
         style="fill:none;stroke:#ff0000;stroke-width:2.22365953;stroke-linejoin:bevel;stroke-miterlimit:4;stroke-opacity:1;stroke-dasharray:none"
         sodipodi:type="arc" />
      <rect
         transform="matrix(0,-1,1,0,0,0)"
         y="177.16528"
         x="-880.51154"
         height="265.74805"
         width="31.889763"
         id="rect4071-3"
         style="fill:none;stroke:#000000;stroke-width:1.25;stroke-linejoin:bevel;stroke-miterlimit:4;stroke-opacity:1;stroke-dasharray:none" />
      <path
         transform="matrix(0,-1.7774852,2.5000001,0,-134.64581,1066.7992)"
         d="m 121.24999,103.46461 a 7.4753938,5.3149605 0 1 1 -14.95079,0 7.4753938,5.3149605 0 1 1 14.95079,0 z"
         sodipodi:ry="5.3149605"
         sodipodi:rx="7.4753938"
         sodipodi:cy="103.46461"
         sodipodi:cx="113.7746"
         id="path4028-1-0-5"
         style="fill:none;stroke:#ff0000;stroke-width:0.59297585;stroke-linejoin:bevel;stroke-miterlimit:4;stroke-opacity:1;stroke-dasharray:none"
         sodipodi:type="arc" />
      <path
         transform="matrix(0,-0.64021205,0.89993297,0,3.2637887,937.40683)"
         d="m 121.24999,103.46461 a 7.4753938,5.3149605 0 1 1 -14.95079,0 7.4753938,5.3149605 0 1 1 14.95079,0 z"
         sodipodi:ry="5.3149605"
         sodipodi:rx="7.4753938"
         sodipodi:cy="103.46461"
         sodipodi:cx="113.7746"
         id="path4028-1-3-6-6"
         style="fill:none;stroke:#ff0000;stroke-width:1.64680803;stroke-linejoin:bevel;stroke-miterlimit:4;stroke-opacity:1;stroke-dasharray:none"
         sodipodi:type="arc" />
      <path
         transform="matrix(0,-4.7399604,6.6666667,0,-565.74834,1403.8536)"
         d="m 121.24999,103.46461 a 7.4753938,5.3149605 0 1 1 -14.95079,0 7.4753938,5.3149605 0 1 1 14.95079,0 z"
         sodipodi:ry="5.3149605"
         sodipodi:rx="7.4753938"
         sodipodi:cy="103.46461"
         sodipodi:cx="113.7746"
         id="path4028-1-1-8-2"
         style="fill:none;stroke:#000000;stroke-width:0.22236595;stroke-linejoin:bevel;stroke-miterlimit:4;stroke-opacity:1;stroke-dasharray:none"
         sodipodi:type="arc" />
      <rect
         transform="matrix(0,-1,1,0,0,0)"
         y="467.71643"
         x="-878.73981"
         height="28.346455"
         width="28.346479"
         id="rect4337-9"
         style="fill:none;stroke:#ff0000;stroke-width:1.25;stroke-linejoin:bevel;stroke-miterlimit:4;stroke-opacity:1;stroke-dasharray:none" />
    </g>
    <g
       id="g5014">
      <rect
         transform="matrix(0,-1,1,0,0,0)"
         y="194.88184"
         x="-783.07062"
         height="230.31497"
         width="7.0866137"
         id="rect2944-6-2"
         style="fill:none;stroke:#ff0000;stroke-width:1.25;stroke-miterlimit:4;stroke-opacity:1;stroke-dasharray:none" />
      <path
         transform="matrix(0,-0.47399603,0.66666666,0,115.27554,833.45595)"
         d="m 121.24999,103.46461 a 7.4753938,5.3149605 0 1 1 -14.95079,0 7.4753938,5.3149605 0 1 1 14.95079,0 z"
         sodipodi:ry="5.3149605"
         sodipodi:rx="7.4753938"
         sodipodi:cy="103.46461"
         sodipodi:cx="113.7746"
         id="path4028-7-7"
         style="fill:none;stroke:#ff0000;stroke-width:2.22365953;stroke-linejoin:bevel;stroke-miterlimit:4;stroke-opacity:1;stroke-dasharray:none"
         sodipodi:type="arc" />
      <path
         transform="matrix(0,-0.47399603,0.66666666,0,366.85034,833.45595)"
         d="m 121.24999,103.46461 a 7.4753938,5.3149605 0 1 1 -14.95079,0 7.4753938,5.3149605 0 1 1 14.95079,0 z"
         sodipodi:ry="5.3149605"
         sodipodi:rx="7.4753938"
         sodipodi:cy="103.46461"
         sodipodi:cx="113.7746"
         id="path4028-2-5-0"
         style="fill:none;stroke:#ff0000;stroke-width:2.22365953;stroke-linejoin:bevel;stroke-miterlimit:4;stroke-opacity:1;stroke-dasharray:none"
         sodipodi:type="arc" />
      <rect
         transform="matrix(0,-1,1,0,0,0)"
         y="177.16528"
         x="-795.47211"
         height="265.74805"
         width="31.889763"
         id="rect4071-3-9"
         style="fill:none;stroke:#000000;stroke-width:1.25;stroke-linejoin:bevel;stroke-miterlimit:4;stroke-opacity:1;stroke-dasharray:none" />
      <path
         transform="matrix(0,-1.7774852,2.5000001,0,-134.64581,981.75986)"
         d="m 121.24999,103.46461 a 7.4753938,5.3149605 0 1 1 -14.95079,0 7.4753938,5.3149605 0 1 1 14.95079,0 z"
         sodipodi:ry="5.3149605"
         sodipodi:rx="7.4753938"
         sodipodi:cy="103.46461"
         sodipodi:cx="113.7746"
         id="path4028-1-0-5-3"
         style="fill:none;stroke:#ff0000;stroke-width:0.59297585;stroke-linejoin:bevel;stroke-miterlimit:4;stroke-opacity:1;stroke-dasharray:none"
         sodipodi:type="arc" />
      <path
         transform="matrix(0,-0.63984559,0.89993101,0,3.1671848,852.42258)"
         d="m 121.24999,103.46461 a 7.4753938,5.3149605 0 1 1 -14.95079,0 7.4753938,5.3149605 0 1 1 14.95079,0 z"
         sodipodi:ry="5.3149605"
         sodipodi:rx="7.4753938"
         sodipodi:cy="103.46461"
         sodipodi:cx="113.7746"
         id="path4028-1-3-6-6-6"
         style="fill:none;stroke:#ff0000;stroke-width:1.64728129;stroke-linejoin:bevel;stroke-miterlimit:4;stroke-opacity:1;stroke-dasharray:none"
         sodipodi:type="arc" />
      <path
         transform="matrix(0,-4.7399604,6.6666667,0,-565.74834,1318.8142)"
         d="m 121.24999,103.46461 a 7.4753938,5.3149605 0 1 1 -14.95079,0 7.4753938,5.3149605 0 1 1 14.95079,0 z"
         sodipodi:ry="5.3149605"
         sodipodi:rx="7.4753938"
         sodipodi:cy="103.46461"
         sodipodi:cx="113.7746"
         id="path4028-1-1-8-2-0"
         style="fill:none;stroke:#000000;stroke-width:0.22236595;stroke-linejoin:bevel;stroke-miterlimit:4;stroke-opacity:1;stroke-dasharray:none"
         sodipodi:type="arc" />
      <rect
         transform="matrix(0,-1,1,0,0,0)"
         y="467.71643"
         x="-793.7005"
         height="28.346455"
         width="28.346479"
         id="rect4337-9-6"
         style="fill:none;stroke:#ff0000;stroke-width:1.25;stroke-linejoin:bevel;stroke-miterlimit:4;stroke-opacity:1;stroke-dasharray:none" />
    </g>
    <g
       id="g5024">
      <rect
         transform="matrix(0,-1,1,0,0,0)"
         y="194.88184"
         x="-690.94452"
         height="230.31497"
         width="7.0866137"
         id="rect2944-6-2-6"
         style="fill:none;stroke:#ff0000;stroke-width:1.25;stroke-miterlimit:4;stroke-opacity:1;stroke-dasharray:none" />
      <path
         transform="matrix(0,-0.47399603,0.66666666,0,115.27554,741.32995)"
         d="m 121.24999,103.46461 a 7.4753938,5.3149605 0 1 1 -14.95079,0 7.4753938,5.3149605 0 1 1 14.95079,0 z"
         sodipodi:ry="5.3149605"
         sodipodi:rx="7.4753938"
         sodipodi:cy="103.46461"
         sodipodi:cx="113.7746"
         id="path4028-7-7-1"
         style="fill:none;stroke:#ff0000;stroke-width:2.22365953;stroke-linejoin:bevel;stroke-miterlimit:4;stroke-opacity:1;stroke-dasharray:none"
         sodipodi:type="arc" />
      <path
         transform="matrix(0,-0.47399603,0.66666666,0,366.85034,741.32995)"
         d="m 121.24999,103.46461 a 7.4753938,5.3149605 0 1 1 -14.95079,0 7.4753938,5.3149605 0 1 1 14.95079,0 z"
         sodipodi:ry="5.3149605"
         sodipodi:rx="7.4753938"
         sodipodi:cy="103.46461"
         sodipodi:cx="113.7746"
         id="path4028-2-5-0-8"
         style="fill:none;stroke:#ff0000;stroke-width:2.22365953;stroke-linejoin:bevel;stroke-miterlimit:4;stroke-opacity:1;stroke-dasharray:none"
         sodipodi:type="arc" />
      <rect
         transform="matrix(0,-1,1,0,0,0)"
         y="177.16528"
         x="-703.34613"
         height="265.74805"
         width="31.889763"
         id="rect4071-3-9-7"
         style="fill:none;stroke:#000000;stroke-width:1.25;stroke-linejoin:bevel;stroke-miterlimit:4;stroke-opacity:1;stroke-dasharray:none" />
      <path
         transform="matrix(0,-1.7774852,2.5000001,0,-134.64581,889.63395)"
         d="m 121.24999,103.46461 a 7.4753938,5.3149605 0 1 1 -14.95079,0 7.4753938,5.3149605 0 1 1 14.95079,0 z"
         sodipodi:ry="5.3149605"
         sodipodi:rx="7.4753938"
         sodipodi:cy="103.46461"
         sodipodi:cx="113.7746"
         id="path4028-1-0-5-3-9"
         style="fill:none;stroke:#ff0000;stroke-width:0.59297585;stroke-linejoin:bevel;stroke-miterlimit:4;stroke-opacity:1;stroke-dasharray:none"
         sodipodi:type="arc" />
      <path
         transform="matrix(0,-0.64022134,0.90045949,0,3.2093125,760.24253)"
         d="m 121.24999,103.46461 a 7.4753938,5.3149605 0 1 1 -14.95079,0 7.4753938,5.3149605 0 1 1 14.95079,0 z"
         sodipodi:ry="5.3149605"
         sodipodi:rx="7.4753938"
         sodipodi:cy="103.46461"
         sodipodi:cx="113.7746"
         id="path4028-1-3-6-6-6-2"
         style="fill:none;stroke:#ff0000;stroke-width:1.6463145;stroke-linejoin:bevel;stroke-miterlimit:4;stroke-opacity:1;stroke-dasharray:none"
         sodipodi:type="arc" />
      <path
         transform="matrix(0,-4.7399604,6.6666667,0,-565.74834,1226.6882)"
         d="m 121.24999,103.46461 a 7.4753938,5.3149605 0 1 1 -14.95079,0 7.4753938,5.3149605 0 1 1 14.95079,0 z"
         sodipodi:ry="5.3149605"
         sodipodi:rx="7.4753938"
         sodipodi:cy="103.46461"
         sodipodi:cx="113.7746"
         id="path4028-1-1-8-2-0-0"
         style="fill:none;stroke:#000000;stroke-width:0.22236595;stroke-linejoin:bevel;stroke-miterlimit:4;stroke-opacity:1;stroke-dasharray:none"
         sodipodi:type="arc" />
      <rect
         transform="matrix(0,-1,1,0,0,0)"
         y="467.71643"
         x="-701.57452"
         height="28.346455"
         width="28.346479"
         id="rect4337-9-6-2"
         style="fill:none;stroke:#ff0000;stroke-width:1.25;stroke-linejoin:bevel;stroke-miterlimit:4;stroke-opacity:1;stroke-dasharray:none" />
    </g>
    <path
       style="fill:none;stroke:#0000ff;stroke-width:1.25;stroke-linecap:butt;stroke-linejoin:miter;stroke-miterlimit:4;stroke-opacity:1;stroke-dasharray:none"
       d="m 1523.8597,804.34735 -425.4162,0 0,248.51595"
       id="path3015"
       inkscape:connector-curvature="0" />
  </g>
</svg>
